<mxfile host="Electron" agent="Mozilla/5.0 (Windows NT 10.0; Win64; x64) AppleWebKit/537.36 (KHTML, like Gecko) draw.io/26.0.16 Chrome/132.0.6834.196 Electron/34.2.0 Safari/537.36" version="26.0.16">
  <diagram name="Page-1" id="aWsxjdvtgqBfxCm3DRe3">
    <mxGraphModel dx="2284" dy="1954" grid="1" gridSize="10" guides="1" tooltips="1" connect="1" arrows="1" fold="1" page="1" pageScale="1" pageWidth="850" pageHeight="1100" math="0" shadow="0">
      <root>
        <mxCell id="0" />
        <mxCell id="1" parent="0" />
        <mxCell id="jpbTrCcpl_wgOt0RlzHu-1" value="" style="rounded=0;whiteSpace=wrap;html=1;fillColor=#f5f5f5;fontColor=#333333;strokeColor=#666666;" parent="1" vertex="1">
          <mxGeometry x="-850" y="-1100" width="1320" height="780" as="geometry" />
        </mxCell>
        <mxCell id="L-bv94e57FrByX5e8OM8-1" value="" style="rounded=1;whiteSpace=wrap;html=1;arcSize=0;dashed=1;dashPattern=8 8;" parent="1" vertex="1">
          <mxGeometry x="-660" y="-990" width="950" height="640" as="geometry" />
        </mxCell>
        <mxCell id="L-bv94e57FrByX5e8OM8-2" value="&lt;div&gt;Texas Instruments&lt;/div&gt;&lt;div&gt;3.3V Switching Regulator&lt;/div&gt;&lt;div&gt;LMR16006YQ3DDCRQ1&lt;/div&gt;" style="rounded=1;whiteSpace=wrap;html=1;fillColor=#d5e8d4;strokeColor=#82b366;arcSize=0;" parent="1" vertex="1">
          <mxGeometry x="-470" y="-990" width="160" height="80" as="geometry" />
        </mxCell>
        <mxCell id="L-bv94e57FrByX5e8OM8-3" value="&lt;div&gt;&lt;div&gt;&lt;span style=&quot;background-color: transparent; color: light-dark(rgb(0, 0, 0), rgb(255, 255, 255));&quot;&gt;Microchip&lt;/span&gt;&lt;/div&gt;&lt;div&gt;&lt;span style=&quot;background-color: transparent; color: light-dark(rgb(0, 0, 0), rgb(255, 255, 255));&quot;&gt;PIC18F27Q10-I/SO&lt;/span&gt;&lt;/div&gt;&lt;/div&gt;" style="rounded=1;whiteSpace=wrap;html=1;arcSize=0;fillColor=#B9E0A5;strokeColor=#82b366;shadow=1;fillStyle=auto;" parent="1" vertex="1">
          <mxGeometry x="-190" y="-910" width="240" height="360" as="geometry" />
        </mxCell>
        <mxCell id="EwCViFnPx9r5d_tJ69nV-2" style="edgeStyle=orthogonalEdgeStyle;rounded=0;orthogonalLoop=1;jettySize=auto;html=1;exitX=1;exitY=0.5;exitDx=0;exitDy=0;" parent="1" source="EwCViFnPx9r5d_tJ69nV-1" target="L-bv94e57FrByX5e8OM8-2" edge="1">
          <mxGeometry relative="1" as="geometry" />
        </mxCell>
        <mxCell id="EwCViFnPx9r5d_tJ69nV-1" value="Barrel Jack" style="rounded=1;whiteSpace=wrap;html=1;arcSize=0;" parent="1" vertex="1">
          <mxGeometry x="-660" y="-990" width="160" height="80" as="geometry" />
        </mxCell>
        <mxCell id="EwCViFnPx9r5d_tJ69nV-3" value="" style="endArrow=none;html=1;rounded=0;entryX=0;entryY=0;entryDx=0;entryDy=0;exitX=0.198;exitY=1.003;exitDx=0;exitDy=0;exitPerimeter=0;" parent="1" source="L-bv94e57FrByX5e8OM8-1" target="L-bv94e57FrByX5e8OM8-2" edge="1">
          <mxGeometry width="50" height="50" relative="1" as="geometry">
            <mxPoint x="-460" y="-350" as="sourcePoint" />
            <mxPoint x="-230" y="-830" as="targetPoint" />
          </mxGeometry>
        </mxCell>
        <mxCell id="EwCViFnPx9r5d_tJ69nV-4" value="ICSP" style="rounded=1;whiteSpace=wrap;html=1;rotation=0;arcSize=0;" parent="1" vertex="1">
          <mxGeometry x="-10" y="-910" width="60" height="60" as="geometry" />
        </mxCell>
        <mxCell id="EwCViFnPx9r5d_tJ69nV-8" value="&lt;font style=&quot;font-size: 24px;&quot;&gt;MacroChip - Ian Anderson&lt;/font&gt;" style="text;html=1;align=center;verticalAlign=middle;resizable=0;points=[];autosize=1;strokeColor=none;fillColor=none;" parent="1" vertex="1">
          <mxGeometry x="-850" y="-1030" width="300" height="40" as="geometry" />
        </mxCell>
        <mxCell id="EwCViFnPx9r5d_tJ69nV-9" value="&lt;font style=&quot;font-size: 48px;&quot;&gt;EGR 314 - Team 306&lt;/font&gt;" style="text;html=1;align=center;verticalAlign=middle;resizable=0;points=[];autosize=1;strokeColor=none;fillColor=none;" parent="1" vertex="1">
          <mxGeometry x="-850" y="-1100" width="470" height="70" as="geometry" />
        </mxCell>
        <mxCell id="EwCViFnPx9r5d_tJ69nV-21" style="edgeStyle=orthogonalEdgeStyle;rounded=0;orthogonalLoop=1;jettySize=auto;html=1;exitX=0.75;exitY=0;exitDx=0;exitDy=0;" parent="1" source="EwCViFnPx9r5d_tJ69nV-11" target="UZtBaI3S94TPEq_McYmC-3" edge="1">
          <mxGeometry relative="1" as="geometry">
            <mxPoint x="49.99999999999977" y="-585" as="targetPoint" />
            <Array as="points">
              <mxPoint x="110" y="-565" />
            </Array>
          </mxGeometry>
        </mxCell>
        <mxCell id="UZtBaI3S94TPEq_McYmC-12" style="edgeStyle=orthogonalEdgeStyle;rounded=0;orthogonalLoop=1;jettySize=auto;html=1;exitX=0.5;exitY=0;exitDx=0;exitDy=0;entryX=0.25;entryY=1;entryDx=0;entryDy=0;" parent="1" source="EwCViFnPx9r5d_tJ69nV-11" target="UZtBaI3S94TPEq_McYmC-8" edge="1">
          <mxGeometry relative="1" as="geometry">
            <Array as="points">
              <mxPoint x="90" y="-450" />
              <mxPoint x="-175" y="-450" />
            </Array>
          </mxGeometry>
        </mxCell>
        <mxCell id="EwCViFnPx9r5d_tJ69nV-11" value="Upstream Header" style="rounded=1;whiteSpace=wrap;html=1;rotation=0;fillColor=#d5e8d4;strokeColor=#82b366;arcSize=0;" parent="1" vertex="1">
          <mxGeometry x="50" y="-380" width="80" height="60" as="geometry" />
        </mxCell>
        <mxCell id="UZtBaI3S94TPEq_McYmC-11" style="edgeStyle=orthogonalEdgeStyle;rounded=0;orthogonalLoop=1;jettySize=auto;html=1;exitX=0.5;exitY=0;exitDx=0;exitDy=0;entryX=0.75;entryY=1;entryDx=0;entryDy=0;" parent="1" source="EwCViFnPx9r5d_tJ69nV-14" target="UZtBaI3S94TPEq_McYmC-8" edge="1">
          <mxGeometry relative="1" as="geometry">
            <Array as="points">
              <mxPoint x="170" y="-480" />
              <mxPoint x="-145" y="-480" />
            </Array>
          </mxGeometry>
        </mxCell>
        <mxCell id="EwCViFnPx9r5d_tJ69nV-14" value="Downstream Header" style="rounded=1;whiteSpace=wrap;html=1;rotation=0;fillColor=#d5e8d4;strokeColor=#82b366;arcSize=0;" parent="1" vertex="1">
          <mxGeometry x="130" y="-380" width="80" height="60" as="geometry" />
        </mxCell>
        <mxCell id="EwCViFnPx9r5d_tJ69nV-19" style="edgeStyle=orthogonalEdgeStyle;rounded=0;orthogonalLoop=1;jettySize=auto;html=1;entryX=0.75;entryY=0;entryDx=0;entryDy=0;" parent="1" source="UZtBaI3S94TPEq_McYmC-2" target="EwCViFnPx9r5d_tJ69nV-14" edge="1">
          <mxGeometry relative="1" as="geometry">
            <mxPoint x="49.99999999999977" y="-615" as="sourcePoint" />
          </mxGeometry>
        </mxCell>
        <mxCell id="EwCViFnPx9r5d_tJ69nV-24" style="edgeStyle=orthogonalEdgeStyle;rounded=0;orthogonalLoop=1;jettySize=auto;html=1;exitX=0;exitY=0.5;exitDx=0;exitDy=0;" parent="1" source="EwCViFnPx9r5d_tJ69nV-22" target="EwCViFnPx9r5d_tJ69nV-4" edge="1">
          <mxGeometry relative="1" as="geometry" />
        </mxCell>
        <mxCell id="EwCViFnPx9r5d_tJ69nV-22" value="MPLabX&lt;div&gt;Snap Programmer&lt;/div&gt;" style="rounded=1;whiteSpace=wrap;html=1;fillColor=#d5e8d4;strokeColor=#82b366;arcSize=0;" parent="1" vertex="1">
          <mxGeometry x="310" y="-920" width="160" height="80" as="geometry" />
        </mxCell>
        <mxCell id="EwCViFnPx9r5d_tJ69nV-40" style="edgeStyle=orthogonalEdgeStyle;rounded=0;orthogonalLoop=1;jettySize=auto;html=1;startArrow=classic;startFill=1;endArrow=classic;endFill=1;" parent="1" source="EwCViFnPx9r5d_tJ69nV-25" target="EwCViFnPx9r5d_tJ69nV-30" edge="1">
          <mxGeometry relative="1" as="geometry">
            <Array as="points">
              <mxPoint x="-240" y="-880" />
              <mxPoint x="-240" y="-710" />
            </Array>
          </mxGeometry>
        </mxCell>
        <mxCell id="EwCViFnPx9r5d_tJ69nV-25" value="I2C" style="rounded=1;whiteSpace=wrap;html=1;rotation=0;arcSize=0;" parent="1" vertex="1">
          <mxGeometry x="-190" y="-910" width="60" height="60" as="geometry" />
        </mxCell>
        <mxCell id="EwCViFnPx9r5d_tJ69nV-28" style="edgeStyle=orthogonalEdgeStyle;rounded=0;orthogonalLoop=1;jettySize=auto;html=1;exitX=1;exitY=0.5;exitDx=0;exitDy=0;" parent="1" source="EwCViFnPx9r5d_tJ69nV-27" target="EwCViFnPx9r5d_tJ69nV-1" edge="1">
          <mxGeometry relative="1" as="geometry" />
        </mxCell>
        <mxCell id="EwCViFnPx9r5d_tJ69nV-27" value="Power Supply" style="rounded=1;whiteSpace=wrap;html=1;fillColor=#d5e8d4;strokeColor=#82b366;arcSize=0;" parent="1" vertex="1">
          <mxGeometry x="-850" y="-990" width="160" height="80" as="geometry" />
        </mxCell>
        <mxCell id="EwCViFnPx9r5d_tJ69nV-29" value="&lt;div&gt;&lt;span style=&quot;background-color: transparent; color: light-dark(rgb(0, 0, 0), rgb(255, 255, 255));&quot;&gt;TE Connectivity Measurement Specialties&lt;/span&gt;&lt;/div&gt;&lt;div&gt;&lt;span style=&quot;background-color: transparent; color: light-dark(rgb(0, 0, 0), rgb(255, 255, 255));&quot;&gt;Pressure Sensor&lt;/span&gt;&lt;br&gt;&lt;/div&gt;&lt;div&gt;MS580301BA01-00&lt;/div&gt;" style="rounded=1;whiteSpace=wrap;html=1;fillColor=#d5e8d4;strokeColor=#82b366;arcSize=0;" parent="1" vertex="1">
          <mxGeometry x="-450" y="-630" width="160" height="80" as="geometry" />
        </mxCell>
        <mxCell id="EwCViFnPx9r5d_tJ69nV-30" value="&lt;div&gt;Honeywell Sensing &amp;amp; Productivity Solutions&lt;/div&gt;&lt;div&gt;Humidity &amp;amp; Temperature Sensor&lt;/div&gt;&lt;div&gt;HIH6030-021-001&lt;/div&gt;" style="rounded=1;whiteSpace=wrap;html=1;fillColor=#d5e8d4;strokeColor=#82b366;arcSize=0;" parent="1" vertex="1">
          <mxGeometry x="-450" y="-750" width="160" height="80" as="geometry" />
        </mxCell>
        <mxCell id="EwCViFnPx9r5d_tJ69nV-34" value="&lt;div&gt;ams-OSRAM USA INC.&lt;/div&gt;&lt;div&gt;Wind Speed Sensor&lt;/div&gt;&lt;div&gt;AS5600L-ASOM SOIC LF T&amp;amp;RDP&lt;/div&gt;" style="rounded=1;whiteSpace=wrap;html=1;fillColor=#d5e8d4;strokeColor=#82b366;arcSize=0;" parent="1" vertex="1">
          <mxGeometry x="-450" y="-870" width="160" height="80" as="geometry" />
        </mxCell>
        <mxCell id="EwCViFnPx9r5d_tJ69nV-41" value="" style="endArrow=classic;html=1;rounded=0;edgeStyle=orthogonalEdgeStyle;" parent="1" source="EwCViFnPx9r5d_tJ69nV-25" target="EwCViFnPx9r5d_tJ69nV-29" edge="1">
          <mxGeometry width="50" height="50" relative="1" as="geometry">
            <mxPoint x="-240" y="-650" as="sourcePoint" />
            <mxPoint x="-250" y="-550" as="targetPoint" />
            <Array as="points">
              <mxPoint x="-240" y="-880" />
              <mxPoint x="-240" y="-590" />
            </Array>
          </mxGeometry>
        </mxCell>
        <mxCell id="EwCViFnPx9r5d_tJ69nV-43" value="" style="endArrow=classic;html=1;rounded=0;edgeStyle=orthogonalEdgeStyle;" parent="1" source="EwCViFnPx9r5d_tJ69nV-25" target="EwCViFnPx9r5d_tJ69nV-34" edge="1">
          <mxGeometry width="50" height="50" relative="1" as="geometry">
            <mxPoint x="-240" y="-650" as="sourcePoint" />
            <mxPoint x="-290" y="-750" as="targetPoint" />
          </mxGeometry>
        </mxCell>
        <mxCell id="EwCViFnPx9r5d_tJ69nV-47" value="Digital - Serial&lt;div&gt;1&lt;span style=&quot;background-color: transparent; color: light-dark(rgb(0, 0, 0), rgb(255, 255, 255));&quot;&gt;&amp;nbsp;pin&lt;/span&gt;&lt;/div&gt;" style="text;html=1;align=center;verticalAlign=middle;whiteSpace=wrap;rounded=0;" parent="1" vertex="1">
          <mxGeometry x="30" y="-518" width="80" height="30" as="geometry" />
        </mxCell>
        <mxCell id="EwCViFnPx9r5d_tJ69nV-48" value="Digital - Serial&lt;div&gt;1 pin&lt;/div&gt;" style="text;html=1;align=center;verticalAlign=middle;whiteSpace=wrap;rounded=0;" parent="1" vertex="1">
          <mxGeometry x="190" y="-518" width="80" height="30" as="geometry" />
        </mxCell>
        <mxCell id="EwCViFnPx9r5d_tJ69nV-49" value="Digital - Serial&lt;div&gt;&lt;span style=&quot;background-color: transparent; color: light-dark(rgb(0, 0, 0), rgb(255, 255, 255));&quot;&gt;3&lt;/span&gt;&lt;span style=&quot;background-color: transparent; color: light-dark(rgb(0, 0, 0), rgb(255, 255, 255));&quot;&gt;&amp;nbsp;pins&lt;/span&gt;&lt;/div&gt;" style="text;html=1;align=center;verticalAlign=middle;whiteSpace=wrap;rounded=0;" parent="1" vertex="1">
          <mxGeometry x="130" y="-880" width="80" height="30" as="geometry" />
        </mxCell>
        <mxCell id="UZtBaI3S94TPEq_McYmC-5" value="" style="group" parent="1" vertex="1" connectable="0">
          <mxGeometry x="-10" y="-610" width="60" height="60" as="geometry" />
        </mxCell>
        <mxCell id="UZtBaI3S94TPEq_McYmC-1" value="" style="rounded=0;whiteSpace=wrap;html=1;" parent="UZtBaI3S94TPEq_McYmC-5" vertex="1">
          <mxGeometry width="60" height="60" as="geometry" />
        </mxCell>
        <mxCell id="UZtBaI3S94TPEq_McYmC-2" value="TX" style="rounded=0;whiteSpace=wrap;html=1;" parent="UZtBaI3S94TPEq_McYmC-5" vertex="1">
          <mxGeometry x="30" width="30" height="30" as="geometry" />
        </mxCell>
        <mxCell id="UZtBaI3S94TPEq_McYmC-3" value="RX" style="rounded=0;whiteSpace=wrap;html=1;" parent="UZtBaI3S94TPEq_McYmC-5" vertex="1">
          <mxGeometry x="30" y="30" width="30" height="30" as="geometry" />
        </mxCell>
        <mxCell id="UZtBaI3S94TPEq_McYmC-4" value="UART" style="text;html=1;align=center;verticalAlign=middle;whiteSpace=wrap;rounded=0;rotation=-90;" parent="UZtBaI3S94TPEq_McYmC-5" vertex="1">
          <mxGeometry x="-15" y="15" width="60" height="30" as="geometry" />
        </mxCell>
        <mxCell id="UZtBaI3S94TPEq_McYmC-6" value="Digital - Serial&lt;div&gt;2 pins&lt;/div&gt;" style="text;html=1;align=center;verticalAlign=middle;resizable=0;points=[];autosize=1;strokeColor=none;fillColor=none;" parent="1" vertex="1">
          <mxGeometry x="-285" y="-925" width="100" height="40" as="geometry" />
        </mxCell>
        <mxCell id="UZtBaI3S94TPEq_McYmC-15" style="edgeStyle=orthogonalEdgeStyle;rounded=0;orthogonalLoop=1;jettySize=auto;html=1;exitX=1;exitY=0.5;exitDx=0;exitDy=0;entryX=0;entryY=0.5;entryDx=0;entryDy=0;" parent="1" source="UZtBaI3S94TPEq_McYmC-7" target="UZtBaI3S94TPEq_McYmC-8" edge="1">
          <mxGeometry relative="1" as="geometry" />
        </mxCell>
        <mxCell id="UZtBaI3S94TPEq_McYmC-7" value="&lt;div&gt;Microchip Technology&lt;/div&gt;&lt;div&gt;Comparator&lt;/div&gt;&lt;div&gt;(Push-Pull)&lt;/div&gt;&lt;div&gt;MCP6541RT-E/OT&lt;/div&gt;" style="rounded=1;whiteSpace=wrap;html=1;fillColor=#d5e8d4;strokeColor=#82b366;arcSize=0;" parent="1" vertex="1">
          <mxGeometry x="-450" y="-510" width="160" height="80" as="geometry" />
        </mxCell>
        <mxCell id="UZtBaI3S94TPEq_McYmC-10" style="edgeStyle=orthogonalEdgeStyle;rounded=0;orthogonalLoop=1;jettySize=auto;html=1;exitX=0.5;exitY=1;exitDx=0;exitDy=0;entryX=0.25;entryY=0;entryDx=0;entryDy=0;" parent="1" source="UZtBaI3S94TPEq_McYmC-8" target="EwCViFnPx9r5d_tJ69nV-14" edge="1">
          <mxGeometry relative="1" as="geometry" />
        </mxCell>
        <mxCell id="UZtBaI3S94TPEq_McYmC-14" style="edgeStyle=orthogonalEdgeStyle;rounded=0;orthogonalLoop=1;jettySize=auto;html=1;exitX=0;exitY=0.75;exitDx=0;exitDy=0;entryX=0.25;entryY=0;entryDx=0;entryDy=0;" parent="1" source="UZtBaI3S94TPEq_McYmC-8" target="EwCViFnPx9r5d_tJ69nV-11" edge="1">
          <mxGeometry relative="1" as="geometry">
            <Array as="points">
              <mxPoint x="-200" y="-565" />
              <mxPoint x="-200" y="-430" />
              <mxPoint x="70" y="-430" />
            </Array>
          </mxGeometry>
        </mxCell>
        <mxCell id="UZtBaI3S94TPEq_McYmC-8" value="GPIO" style="whiteSpace=wrap;html=1;" parent="1" vertex="1">
          <mxGeometry x="-190" y="-610" width="60" height="60" as="geometry" />
        </mxCell>
        <mxCell id="UZtBaI3S94TPEq_McYmC-16" value="Digital&lt;div&gt;1-pin&lt;/div&gt;" style="text;html=1;align=center;verticalAlign=middle;resizable=0;points=[];autosize=1;strokeColor=none;fillColor=none;" parent="1" vertex="1">
          <mxGeometry x="-290" y="-470" width="60" height="40" as="geometry" />
        </mxCell>
        <mxCell id="UZtBaI3S94TPEq_McYmC-18" value="Digital 2&lt;span style=&quot;background-color: transparent; color: light-dark(rgb(0, 0, 0), rgb(255, 255, 255));&quot;&gt;-pin&lt;/span&gt;" style="text;html=1;align=center;verticalAlign=middle;resizable=0;points=[];autosize=1;strokeColor=none;fillColor=none;" parent="1" vertex="1">
          <mxGeometry x="-145" y="-488" width="90" height="30" as="geometry" />
        </mxCell>
        <mxCell id="UZtBaI3S94TPEq_McYmC-20" value="Digital&amp;nbsp;&lt;span style=&quot;background-color: transparent; color: light-dark(rgb(0, 0, 0), rgb(255, 255, 255));&quot;&gt;1-pin&lt;/span&gt;" style="text;html=1;align=center;verticalAlign=middle;resizable=0;points=[];autosize=1;strokeColor=none;fillColor=none;" parent="1" vertex="1">
          <mxGeometry x="-145" y="-473" width="90" height="30" as="geometry" />
        </mxCell>
        <mxCell id="UZtBaI3S94TPEq_McYmC-21" value="Digital&amp;nbsp;&lt;span style=&quot;background-color: transparent; color: light-dark(rgb(0, 0, 0), rgb(255, 255, 255));&quot;&gt;1-pin&lt;/span&gt;" style="text;html=1;align=center;verticalAlign=middle;resizable=0;points=[];autosize=1;strokeColor=none;fillColor=none;" parent="1" vertex="1">
          <mxGeometry x="-145" y="-458" width="90" height="30" as="geometry" />
        </mxCell>
        <mxCell id="UZtBaI3S94TPEq_McYmC-22" value="Digital&amp;nbsp;&lt;span style=&quot;background-color: transparent; color: light-dark(rgb(0, 0, 0), rgb(255, 255, 255));&quot;&gt;1-pin&lt;/span&gt;" style="text;html=1;align=center;verticalAlign=middle;resizable=0;points=[];autosize=1;strokeColor=none;fillColor=none;" parent="1" vertex="1">
          <mxGeometry x="-145" y="-503" width="90" height="30" as="geometry" />
        </mxCell>
        <mxCell id="xWYDSKt1FshQCqHDfc9M-1" value="0x27" style="text;html=1;align=center;verticalAlign=middle;resizable=0;points=[];autosize=1;strokeColor=none;fillColor=none;" parent="1" vertex="1">
          <mxGeometry x="-290" y="-740" width="50" height="30" as="geometry" />
        </mxCell>
        <mxCell id="xWYDSKt1FshQCqHDfc9M-2" value="0x36" style="text;html=1;align=center;verticalAlign=middle;resizable=0;points=[];autosize=1;strokeColor=none;fillColor=none;" parent="1" vertex="1">
          <mxGeometry x="-290" y="-860" width="50" height="30" as="geometry" />
        </mxCell>
        <mxCell id="xWYDSKt1FshQCqHDfc9M-3" value="0x77" style="text;html=1;align=center;verticalAlign=middle;resizable=0;points=[];autosize=1;strokeColor=none;fillColor=none;" parent="1" vertex="1">
          <mxGeometry x="-290" y="-620" width="50" height="30" as="geometry" />
        </mxCell>
      </root>
    </mxGraphModel>
  </diagram>
</mxfile>
